<svg width="2449" height="82" viewBox="0 0 2449 82" fill="none" xmlns="http://www.w3.org/2000/svg">
<rect width="434" height="82" rx="40" fill="#FF4D4D"/>
<rect x="454" width="82" height="82" rx="40" fill="#FFD362"/>
<rect x="556" width="292" height="82" rx="40" fill="#749BFF"/>
<mask id="mask0_657_114" style="mask-type:alpha" maskUnits="userSpaceOnUse" x="556" y="0" width="292" height="82">
<rect x="556" width="292" height="82" rx="40" fill="#749BFF"/>
</mask>
<g mask="url(#mask0_657_114)">
<mask id="mask1_657_114" style="mask-type:alpha" maskUnits="userSpaceOnUse" x="556" y="0" width="292" height="82">
<rect x="556" width="292" height="82" fill="#94B2FF"/>
</mask>
<g mask="url(#mask1_657_114)">
<rect width="3.66787" height="128.82" transform="matrix(0.925429 0.37892 -0.631337 0.775509 553.059 -9.73047)" fill="#94B2FF"/>
<rect width="3.66787" height="128.82" transform="matrix(0.925429 0.37892 -0.631337 0.775509 562.859 -9.73047)" fill="#94B2FF"/>
<rect width="3.66787" height="128.82" transform="matrix(0.925429 0.37892 -0.631337 0.775509 572.656 -9.73047)" fill="#94B2FF"/>
<rect width="3.66787" height="128.82" transform="matrix(0.925429 0.37892 -0.631337 0.775509 582.457 -9.73047)" fill="#94B2FF"/>
<rect width="3.66787" height="128.82" transform="matrix(0.925429 0.37892 -0.631337 0.775509 592.254 -9.73047)" fill="#94B2FF"/>
<rect width="3.66787" height="128.82" transform="matrix(0.925429 0.37892 -0.631337 0.775509 602.055 -9.73047)" fill="#94B2FF"/>
<rect width="3.66787" height="128.82" transform="matrix(0.925429 0.37892 -0.631337 0.775509 611.852 -9.73047)" fill="#94B2FF"/>
<rect width="3.66787" height="128.82" transform="matrix(0.925429 0.37892 -0.631337 0.775509 621.652 -9.73047)" fill="#94B2FF"/>
<rect width="3.66787" height="128.82" transform="matrix(0.925429 0.37892 -0.631337 0.775509 631.449 -9.73047)" fill="#94B2FF"/>
<rect width="3.66787" height="128.82" transform="matrix(0.925429 0.37892 -0.631337 0.775509 641.25 -9.73047)" fill="#94B2FF"/>
<rect width="3.66787" height="128.82" transform="matrix(0.925429 0.37892 -0.631337 0.775509 651.047 -9.73047)" fill="#94B2FF"/>
<rect width="3.66787" height="128.82" transform="matrix(0.925429 0.37892 -0.631337 0.775509 660.844 -9.73047)" fill="#94B2FF"/>
<rect width="3.66787" height="128.82" transform="matrix(0.925429 0.37892 -0.631337 0.775509 670.645 -9.73047)" fill="#94B2FF"/>
<rect width="3.66787" height="128.82" transform="matrix(0.925429 0.37892 -0.631337 0.775509 680.441 -9.73047)" fill="#94B2FF"/>
<rect width="3.66787" height="128.82" transform="matrix(0.925429 0.37892 -0.631337 0.775509 690.242 -9.73047)" fill="#94B2FF"/>
<rect width="3.66787" height="128.82" transform="matrix(0.925429 0.37892 -0.631337 0.775509 700.039 -9.73047)" fill="#94B2FF"/>
<rect width="3.66787" height="128.82" transform="matrix(0.925429 0.37892 -0.631337 0.775509 709.84 -9.73047)" fill="#94B2FF"/>
<rect width="3.66787" height="128.82" transform="matrix(0.925429 0.37892 -0.631337 0.775509 719.637 -9.73047)" fill="#94B2FF"/>
<rect width="3.66787" height="128.82" transform="matrix(0.925429 0.37892 -0.631337 0.775509 729.438 -9.73047)" fill="#94B2FF"/>
<rect width="3.66787" height="128.82" transform="matrix(0.925429 0.37892 -0.631337 0.775509 739.234 -9.73047)" fill="#94B2FF"/>
<rect width="3.66787" height="128.82" transform="matrix(0.925429 0.37892 -0.631337 0.775509 749.035 -9.73047)" fill="#94B2FF"/>
<rect width="3.66787" height="128.82" transform="matrix(0.925429 0.37892 -0.631337 0.775509 758.832 -9.73047)" fill="#94B2FF"/>
<rect width="3.66787" height="128.82" transform="matrix(0.925429 0.37892 -0.631337 0.775509 768.633 -9.73047)" fill="#94B2FF"/>
<rect width="3.66787" height="128.82" transform="matrix(0.925429 0.37892 -0.631337 0.775509 778.43 -9.73047)" fill="#94B2FF"/>
<rect width="3.66787" height="128.82" transform="matrix(0.925429 0.37892 -0.631337 0.775509 788.227 -9.73047)" fill="#94B2FF"/>
<rect width="3.66787" height="128.82" transform="matrix(0.925429 0.37892 -0.631337 0.775509 798.027 -9.73047)" fill="#94B2FF"/>
<rect width="3.66787" height="128.82" transform="matrix(0.925429 0.37892 -0.631337 0.775509 807.824 -9.73047)" fill="#94B2FF"/>
<rect width="3.66787" height="128.82" transform="matrix(0.925429 0.37892 -0.631337 0.775509 817.625 -9.73047)" fill="#94B2FF"/>
<rect width="3.66787" height="128.82" transform="matrix(0.925429 0.37892 -0.631337 0.775509 827.422 -9.73047)" fill="#94B2FF"/>
<rect width="3.66787" height="128.82" transform="matrix(0.925429 0.37892 -0.631337 0.775509 837.223 -9.73047)" fill="#94B2FF"/>
<rect width="3.66787" height="128.82" transform="matrix(0.925429 0.37892 -0.631337 0.775509 847.02 -9.73047)" fill="#94B2FF"/>
<rect width="3.66787" height="128.82" transform="matrix(0.925429 0.37892 -0.631337 0.775509 856.82 -9.73047)" fill="#94B2FF"/>
<rect width="3.66787" height="128.82" transform="matrix(0.925429 0.37892 -0.631337 0.775509 866.617 -9.73047)" fill="#94B2FF"/>
<rect width="3.66787" height="128.82" transform="matrix(0.925429 0.37892 -0.631337 0.775509 876.418 -9.73047)" fill="#94B2FF"/>
<rect width="3.66787" height="128.82" transform="matrix(0.925429 0.37892 -0.631337 0.775509 886.215 -9.73047)" fill="#94B2FF"/>
<rect width="3.66787" height="128.82" transform="matrix(0.925429 0.37892 -0.631337 0.775509 896.012 -9.73047)" fill="#94B2FF"/>
<rect width="3.66787" height="128.82" transform="matrix(0.925429 0.37892 -0.631337 0.775509 905.812 -9.73047)" fill="#94B2FF"/>
<rect width="3.66787" height="128.82" transform="matrix(0.925429 0.37892 -0.631337 0.775509 915.609 -9.73047)" fill="#94B2FF"/>
<rect width="3.66787" height="128.82" transform="matrix(0.925429 0.37892 -0.631337 0.775509 925.41 -9.73047)" fill="#94B2FF"/>
</g>
</g>
<rect x="868" width="337" height="82" rx="40" fill="#FFD362"/>
<rect x="1225" width="82" height="82" rx="40" fill="#749BFF"/>
<rect x="1266" y="12" width="41.0129" height="41.0129" transform="rotate(45 1266 12)" fill="#94B2FF"/>
<mask id="mask2_657_114" style="mask-type:alpha" maskUnits="userSpaceOnUse" x="1327" y="0" width="221" height="82">
<rect x="1327" width="221" height="82" rx="40" fill="#FF7373"/>
</mask>
<g mask="url(#mask2_657_114)">
<rect x="1316" y="-1" width="232" height="83" fill="#FF4D4D"/>
<circle cx="1345" cy="5" r="10" fill="#FF6767"/>
<circle cx="1345" cy="53" r="10" fill="#FF6767"/>
<circle cx="1356" cy="29" r="10" fill="#FF6767"/>
<circle cx="1332" cy="29" r="10" fill="#FF6767"/>
<circle cx="1356" cy="77" r="10" fill="#FF6767"/>
<circle cx="1369" cy="5" r="10" fill="#FF6767"/>
<circle cx="1369" cy="53" r="10" fill="#FF6767"/>
<circle cx="1380" cy="29" r="10" fill="#FF6767"/>
<circle cx="1380" cy="77" r="10" fill="#FF6767"/>
<circle cx="1393" cy="5" r="10" fill="#FF6767"/>
<circle cx="1393" cy="53" r="10" fill="#FF6767"/>
<circle cx="1404" cy="29" r="10" fill="#FF6767"/>
<circle cx="1404" cy="77" r="10" fill="#FF6767"/>
<circle cx="1417" cy="5" r="10" fill="#FF6767"/>
<circle cx="1417" cy="53" r="10" fill="#FF6767"/>
<circle cx="1428" cy="29" r="10" fill="#FF6767"/>
<circle cx="1428" cy="77" r="10" fill="#FF6767"/>
<circle cx="1441" cy="5" r="10" fill="#FF6767"/>
<circle cx="1465" cy="5" r="10" fill="#FF6767"/>
<circle cx="1489" cy="5" r="10" fill="#FF6767"/>
<circle cx="1513" cy="5" r="10" fill="#FF6767"/>
<circle cx="1538" cy="5" r="10" fill="#FF6767"/>
<circle cx="1441" cy="53" r="10" fill="#FF6767"/>
<circle cx="1465" cy="53" r="10" fill="#FF6767"/>
<circle cx="1489" cy="53" r="10" fill="#FF6767"/>
<circle cx="1513" cy="53" r="10" fill="#FF6767"/>
<circle cx="1537" cy="53" r="10" fill="#FF6767"/>
<circle cx="1452" cy="29" r="10" fill="#FF6767"/>
<circle cx="1476" cy="29" r="10" fill="#FF6767"/>
<circle cx="1500" cy="29" r="10" fill="#FF6767"/>
<circle cx="1524" cy="29" r="10" fill="#FF6767"/>
<circle cx="1549" cy="29" r="10" fill="#FF6767"/>
<circle cx="1452" cy="77" r="10" fill="#FF6767"/>
<circle cx="1476" cy="77" r="10" fill="#FF6767"/>
<circle cx="1500" cy="77" r="10" fill="#FF6767"/>
<circle cx="1524" cy="77" r="10" fill="#FF6767"/>
</g>
<rect x="1568" width="82" height="82" rx="40" fill="#FFD362"/>
<path fill-rule="evenodd" clip-rule="evenodd" d="M1694 0C1680.75 0 1670 10.7452 1670 24V58C1670 71.2548 1680.75 82 1694 82C1707.25 82 1718 71.2548 1718 58C1718 71.2548 1728.75 82 1742 82C1755.25 82 1766 71.2548 1766 58C1766 71.2548 1776.75 82 1790 82C1803.25 82 1814 71.2548 1814 58C1814 71.2548 1824.75 82 1838 82C1851.25 82 1862 71.2548 1862 58V24C1862 10.7452 1851.25 0 1838 0C1824.75 0 1814 10.7452 1814 24C1814 10.7452 1803.25 0 1790 0C1776.75 0 1766 10.7452 1766 24C1766 10.7452 1755.25 0 1742 0C1728.75 0 1718 10.7452 1718 24C1718 10.7452 1707.25 0 1694 0Z" fill="#749BFF"/>
<rect x="1882" width="235" height="82" rx="40" fill="#FFD362"/>
<rect x="2137" width="292" height="82" rx="40" fill="#FF4D4D"/>
</svg>
