<svg width="1920" height="82" viewBox="0 0 1920 82" fill="none" xmlns="http://www.w3.org/2000/svg">
<rect x="-255" width="434" height="82" rx="40" fill="#FF4D4D"/>
<rect x="199" width="82" height="82" rx="40" fill="#FFD362"/>
<rect x="301" width="292" height="82" rx="40" fill="#749BFF"/>
<mask id="mask0_1301_8176" style="mask-type:alpha" maskUnits="userSpaceOnUse" x="301" y="0" width="292" height="82">
<rect x="301" width="292" height="82" rx="40" fill="#749BFF"/>
</mask>
<g mask="url(#mask0_1301_8176)">
<mask id="mask1_1301_8176" style="mask-type:alpha" maskUnits="userSpaceOnUse" x="301" y="0" width="292" height="82">
<rect x="301" width="292" height="82" fill="#94B2FF"/>
</mask>
<g mask="url(#mask1_1301_8176)">
<rect width="3.66787" height="128.82" transform="matrix(0.925429 0.37892 -0.631337 0.775509 298.061 -9.72852)" fill="#94B2FF"/>
<rect width="3.66787" height="128.82" transform="matrix(0.925429 0.37892 -0.631337 0.775509 307.859 -9.72852)" fill="#94B2FF"/>
<rect width="3.66787" height="128.82" transform="matrix(0.925429 0.37892 -0.631337 0.775509 317.658 -9.72852)" fill="#94B2FF"/>
<rect width="3.66787" height="128.82" transform="matrix(0.925429 0.37892 -0.631337 0.775509 327.456 -9.72852)" fill="#94B2FF"/>
<rect width="3.66787" height="128.82" transform="matrix(0.925429 0.37892 -0.631337 0.775509 337.255 -9.72852)" fill="#94B2FF"/>
<rect width="3.66787" height="128.82" transform="matrix(0.925429 0.37892 -0.631337 0.775509 347.054 -9.72852)" fill="#94B2FF"/>
<rect width="3.66787" height="128.82" transform="matrix(0.925429 0.37892 -0.631337 0.775509 356.853 -9.72852)" fill="#94B2FF"/>
<rect width="3.66787" height="128.82" transform="matrix(0.925429 0.37892 -0.631337 0.775509 366.651 -9.72852)" fill="#94B2FF"/>
<rect width="3.66787" height="128.82" transform="matrix(0.925429 0.37892 -0.631337 0.775509 376.449 -9.72852)" fill="#94B2FF"/>
<rect width="3.66787" height="128.82" transform="matrix(0.925429 0.37892 -0.631337 0.775509 386.248 -9.72852)" fill="#94B2FF"/>
<rect width="3.66787" height="128.82" transform="matrix(0.925429 0.37892 -0.631337 0.775509 396.047 -9.72852)" fill="#94B2FF"/>
<rect width="3.66787" height="128.82" transform="matrix(0.925429 0.37892 -0.631337 0.775509 405.846 -9.72852)" fill="#94B2FF"/>
<rect width="3.66787" height="128.82" transform="matrix(0.925429 0.37892 -0.631337 0.775509 415.645 -9.72852)" fill="#94B2FF"/>
<rect width="3.66787" height="128.82" transform="matrix(0.925429 0.37892 -0.631337 0.775509 425.443 -9.72852)" fill="#94B2FF"/>
<rect width="3.66787" height="128.82" transform="matrix(0.925429 0.37892 -0.631337 0.775509 435.241 -9.72852)" fill="#94B2FF"/>
<rect width="3.66787" height="128.82" transform="matrix(0.925429 0.37892 -0.631337 0.775509 445.04 -9.72852)" fill="#94B2FF"/>
<rect width="3.66787" height="128.82" transform="matrix(0.925429 0.37892 -0.631337 0.775509 454.839 -9.72852)" fill="#94B2FF"/>
<rect width="3.66787" height="128.82" transform="matrix(0.925429 0.37892 -0.631337 0.775509 464.638 -9.72852)" fill="#94B2FF"/>
<rect width="3.66787" height="128.82" transform="matrix(0.925429 0.37892 -0.631337 0.775509 474.437 -9.72852)" fill="#94B2FF"/>
<rect width="3.66787" height="128.82" transform="matrix(0.925429 0.37892 -0.631337 0.775509 484.235 -9.72852)" fill="#94B2FF"/>
<rect width="3.66787" height="128.82" transform="matrix(0.925429 0.37892 -0.631337 0.775509 494.033 -9.72852)" fill="#94B2FF"/>
<rect width="3.66787" height="128.82" transform="matrix(0.925429 0.37892 -0.631337 0.775509 503.832 -9.72852)" fill="#94B2FF"/>
<rect width="3.66787" height="128.82" transform="matrix(0.925429 0.37892 -0.631337 0.775509 513.631 -9.72852)" fill="#94B2FF"/>
<rect width="3.66787" height="128.82" transform="matrix(0.925429 0.37892 -0.631337 0.775509 523.43 -9.72852)" fill="#94B2FF"/>
<rect width="3.66787" height="128.82" transform="matrix(0.925429 0.37892 -0.631337 0.775509 533.229 -9.72852)" fill="#94B2FF"/>
<rect width="3.66787" height="128.82" transform="matrix(0.925429 0.37892 -0.631337 0.775509 543.026 -9.72852)" fill="#94B2FF"/>
<rect width="3.66787" height="128.82" transform="matrix(0.925429 0.37892 -0.631337 0.775509 552.825 -9.72852)" fill="#94B2FF"/>
<rect width="3.66787" height="128.82" transform="matrix(0.925429 0.37892 -0.631337 0.775509 562.624 -9.72852)" fill="#94B2FF"/>
<rect width="3.66787" height="128.82" transform="matrix(0.925429 0.37892 -0.631337 0.775509 572.423 -9.72852)" fill="#94B2FF"/>
<rect width="3.66787" height="128.82" transform="matrix(0.925429 0.37892 -0.631337 0.775509 582.222 -9.72852)" fill="#94B2FF"/>
<rect width="3.66787" height="128.82" transform="matrix(0.925429 0.37892 -0.631337 0.775509 592.021 -9.72852)" fill="#94B2FF"/>
<rect width="3.66787" height="128.82" transform="matrix(0.925429 0.37892 -0.631337 0.775509 601.818 -9.72852)" fill="#94B2FF"/>
<rect width="3.66787" height="128.82" transform="matrix(0.925429 0.37892 -0.631337 0.775509 611.617 -9.72852)" fill="#94B2FF"/>
<rect width="3.66787" height="128.82" transform="matrix(0.925429 0.37892 -0.631337 0.775509 621.416 -9.72852)" fill="#94B2FF"/>
<rect width="3.66787" height="128.82" transform="matrix(0.925429 0.37892 -0.631337 0.775509 631.215 -9.72852)" fill="#94B2FF"/>
<rect width="3.66787" height="128.82" transform="matrix(0.925429 0.37892 -0.631337 0.775509 641.014 -9.72852)" fill="#94B2FF"/>
<rect width="3.66787" height="128.82" transform="matrix(0.925429 0.37892 -0.631337 0.775509 650.812 -9.72852)" fill="#94B2FF"/>
<rect width="3.66787" height="128.82" transform="matrix(0.925429 0.37892 -0.631337 0.775509 660.61 -9.72852)" fill="#94B2FF"/>
<rect width="3.66787" height="128.82" transform="matrix(0.925429 0.37892 -0.631337 0.775509 670.409 -9.72852)" fill="#94B2FF"/>
</g>
</g>
<rect x="613" width="337" height="82" rx="40" fill="#FFD362"/>
<rect x="970" width="82" height="82" rx="40" fill="#749BFF"/>
<rect x="1011" y="12" width="41.0129" height="41.0129" transform="rotate(45 1011 12)" fill="#94B2FF"/>
<mask id="mask2_1301_8176" style="mask-type:alpha" maskUnits="userSpaceOnUse" x="1072" y="0" width="221" height="82">
<rect x="1072" width="221" height="82" rx="40" fill="#FF7373"/>
</mask>
<g mask="url(#mask2_1301_8176)">
<rect x="1061" y="-1" width="232" height="83" fill="#FF4D4D"/>
<circle cx="1090" cy="5" r="10" fill="#FF6767"/>
<circle cx="1090" cy="53" r="10" fill="#FF6767"/>
<circle cx="1101" cy="29" r="10" fill="#FF6767"/>
<circle cx="1077" cy="29" r="10" fill="#FF6767"/>
<circle cx="1101" cy="77" r="10" fill="#FF6767"/>
<circle cx="1114" cy="5" r="10" fill="#FF6767"/>
<circle cx="1114" cy="53" r="10" fill="#FF6767"/>
<circle cx="1125" cy="29" r="10" fill="#FF6767"/>
<circle cx="1125" cy="77" r="10" fill="#FF6767"/>
<circle cx="1138" cy="5" r="10" fill="#FF6767"/>
<circle cx="1138" cy="53" r="10" fill="#FF6767"/>
<circle cx="1149" cy="29" r="10" fill="#FF6767"/>
<circle cx="1149" cy="77" r="10" fill="#FF6767"/>
<circle cx="1162" cy="5" r="10" fill="#FF6767"/>
<circle cx="1162" cy="53" r="10" fill="#FF6767"/>
<circle cx="1173" cy="29" r="10" fill="#FF6767"/>
<circle cx="1173" cy="77" r="10" fill="#FF6767"/>
<circle cx="1186" cy="5" r="10" fill="#FF6767"/>
<circle cx="1210" cy="5" r="10" fill="#FF6767"/>
<circle cx="1234" cy="5" r="10" fill="#FF6767"/>
<circle cx="1258" cy="5" r="10" fill="#FF6767"/>
<circle cx="1283" cy="5" r="10" fill="#FF6767"/>
<circle cx="1186" cy="53" r="10" fill="#FF6767"/>
<circle cx="1210" cy="53" r="10" fill="#FF6767"/>
<circle cx="1234" cy="53" r="10" fill="#FF6767"/>
<circle cx="1258" cy="53" r="10" fill="#FF6767"/>
<circle cx="1282" cy="53" r="10" fill="#FF6767"/>
<circle cx="1197" cy="29" r="10" fill="#FF6767"/>
<circle cx="1221" cy="29" r="10" fill="#FF6767"/>
<circle cx="1245" cy="29" r="10" fill="#FF6767"/>
<circle cx="1269" cy="29" r="10" fill="#FF6767"/>
<circle cx="1294" cy="29" r="10" fill="#FF6767"/>
<circle cx="1197" cy="77" r="10" fill="#FF6767"/>
<circle cx="1221" cy="77" r="10" fill="#FF6767"/>
<circle cx="1245" cy="77" r="10" fill="#FF6767"/>
<circle cx="1269" cy="77" r="10" fill="#FF6767"/>
</g>
<rect x="1313" width="82" height="82" rx="40" fill="#FFD362"/>
<rect x="1415" width="48" height="82" rx="24" fill="#749BFF"/>
<rect x="1463" width="48" height="82" rx="24" fill="#749BFF"/>
<rect x="1559" width="48" height="82" rx="24" fill="#749BFF"/>
<rect x="1511" width="48" height="82" rx="24" fill="#749BFF"/>
<rect x="1627" width="235" height="82" rx="40" fill="#FFD362"/>
<rect x="1882" width="292" height="82" rx="40" fill="#FF4D4D"/>
</svg>
