<svg width="2353" height="82" viewBox="0 0 2353 82" fill="none" xmlns="http://www.w3.org/2000/svg">
<rect width="330" height="82" rx="40" fill="#FFD362"/>
<rect x="350" width="222" height="82" rx="40" fill="#749BFF"/>
<rect x="592" width="82" height="82" rx="40" fill="#FFD362"/>
<rect x="633" y="12" width="41.0129" height="41.0129" transform="rotate(45 633 12)" fill="#FFE298"/>
<path fill-rule="evenodd" clip-rule="evenodd" d="M720 0C705.641 0 694 11.6406 694 26V56C694 70.3594 705.641 82 720 82C734.359 82 746 70.3594 746 56C746 70.3594 757.641 82 772 82C786.359 82 798 70.3594 798 56C798 70.3594 809.641 82 824 82C838.359 82 850 70.3594 850 56C850 70.3594 861.641 82 876 82C890.359 82 902 70.3594 902 56V26C902 11.6406 890.359 0 876 0C861.641 0 850 11.6406 850 26C850 11.6406 838.359 0 824 0C809.641 0 798 11.6406 798 26C798 11.6406 786.359 0 772 0C757.641 0 746 11.6406 746 26C746 11.6406 734.359 0 720 0Z" fill="#FF4D4D"/>
<rect x="922" width="130" height="82" rx="40" fill="#749BFF"/>
<rect x="1072" width="235" height="82" rx="40" fill="#FFD362"/>
<rect x="1327" width="337" height="82" rx="40" fill="#FF4D4D"/>
<rect x="1684" width="235" height="82" rx="40" fill="#FFD362"/>
<path fill-rule="evenodd" clip-rule="evenodd" d="M1725.83 20.4612C1720.15 14.5129 1710.94 14.5129 1705.26 20.4612C1699.58 26.4095 1699.58 36.0535 1705.26 42.0018L1727.52 65.3117C1727.72 65.5207 1727.93 65.7079 1728.16 65.8732C1730.07 67.3289 1732.76 67.1547 1734.48 65.3505L1756.74 42.0407C1762.42 36.0924 1762.42 26.4483 1756.74 20.5001C1751.06 14.5518 1741.85 14.5518 1736.17 20.5L1731.02 25.8928L1725.83 20.4612Z" fill="#FFE298"/>
<path fill-rule="evenodd" clip-rule="evenodd" d="M1795.83 20.4612C1790.15 14.5129 1780.94 14.5129 1775.26 20.4612C1769.58 26.4095 1769.58 36.0535 1775.26 42.0018L1797.52 65.3117C1797.72 65.5207 1797.93 65.7079 1798.16 65.8732C1800.07 67.3289 1802.76 67.1547 1804.48 65.3505L1826.74 42.0407C1832.42 36.0924 1832.42 26.4483 1826.74 20.5001C1821.06 14.5518 1811.85 14.5518 1806.17 20.5L1801.02 25.8928L1795.83 20.4612Z" fill="#FFE298"/>
<path fill-rule="evenodd" clip-rule="evenodd" d="M1865.83 20.4612C1860.15 14.5129 1850.94 14.5129 1845.26 20.4612C1839.58 26.4095 1839.58 36.0535 1845.26 42.0018L1867.52 65.3117C1867.72 65.5207 1867.93 65.7079 1868.16 65.8732C1870.07 67.3289 1872.76 67.1547 1874.48 65.3505L1896.74 42.0407C1902.42 36.0924 1902.42 26.4483 1896.74 20.5001C1891.06 14.5518 1881.85 14.5518 1876.17 20.5L1871.02 25.8928L1865.83 20.4612Z" fill="#FFE298"/>
<rect x="1939" width="82" height="82" rx="40" fill="#749BFF"/>
<rect x="2041" width="292" height="82" rx="40" fill="#FFD362"/>
</svg>
