<svg width="1920" height="82" viewBox="0 0 1920 82" fill="none" xmlns="http://www.w3.org/2000/svg">
<rect x="-239" width="330" height="82" rx="40" fill="#FFD362"/>
<rect x="111" width="222" height="82" rx="40" fill="#749BFF"/>
<rect x="353" width="82" height="82" rx="40" fill="#FFD362"/>
<rect x="393.999" y="12" width="41.0129" height="41.0129" transform="rotate(45 393.999 12)" fill="#FFE298"/>
<rect x="455" width="52" height="82" rx="26" fill="#FF4D4D"/>
<rect x="507" width="52" height="82" rx="26" fill="#FF4D4D"/>
<rect x="559" width="52" height="82" rx="26" fill="#FF4D4D"/>
<rect x="611" width="52" height="82" rx="26" fill="#FF4D4D"/>
<rect x="683" width="130" height="82" rx="40" fill="#749BFF"/>
<rect x="833" width="235" height="82" rx="40" fill="#FFD362"/>
<rect x="1088" width="337" height="82" rx="40" fill="#FF4D4D"/>
<rect x="1445" width="235" height="82" rx="40" fill="#FFD362"/>
<path fill-rule="evenodd" clip-rule="evenodd" d="M1486.83 20.4612C1481.15 14.5129 1471.94 14.5129 1466.26 20.4612C1460.58 26.4095 1460.58 36.0535 1466.26 42.0018L1488.52 65.3117C1488.72 65.5207 1488.93 65.7079 1489.16 65.8732C1491.07 67.3289 1493.76 67.1547 1495.48 65.3505L1517.74 42.0407C1523.42 36.0924 1523.42 26.4483 1517.74 20.5001C1512.06 14.5518 1502.85 14.5518 1497.17 20.5L1492.02 25.8928L1486.83 20.4612Z" fill="#FFE298"/>
<path fill-rule="evenodd" clip-rule="evenodd" d="M1556.83 20.4612C1551.15 14.5129 1541.94 14.5129 1536.26 20.4612C1530.58 26.4095 1530.58 36.0535 1536.26 42.0018L1558.52 65.3117C1558.72 65.5207 1558.93 65.7079 1559.16 65.8732C1561.07 67.3289 1563.76 67.1547 1565.48 65.3505L1587.74 42.0407C1593.42 36.0924 1593.42 26.4483 1587.74 20.5001C1582.06 14.5518 1572.85 14.5518 1567.17 20.5L1562.02 25.8928L1556.83 20.4612Z" fill="#FFE298"/>
<path fill-rule="evenodd" clip-rule="evenodd" d="M1626.83 20.4612C1621.15 14.5129 1611.94 14.5129 1606.26 20.4612C1600.58 26.4095 1600.58 36.0535 1606.26 42.0018L1628.52 65.3117C1628.72 65.5207 1628.93 65.7079 1629.16 65.8732C1631.07 67.3289 1633.76 67.1547 1635.48 65.3505L1657.74 42.0407C1663.42 36.0924 1663.42 26.4483 1657.74 20.5001C1652.06 14.5518 1642.85 14.5518 1637.17 20.5L1632.02 25.8928L1626.83 20.4612Z" fill="#FFE298"/>
<rect x="1700" width="82" height="82" rx="40" fill="#749BFF"/>
<rect x="1802" width="292" height="82" rx="40" fill="#FFD362"/>
</svg>
