<svg width="1989" height="82" viewBox="0 0 1989 82" fill="none" xmlns="http://www.w3.org/2000/svg">
<rect width="330" height="82" rx="40" fill="#FFD362"/>
<rect x="350" width="222" height="82" rx="40" fill="#FF4D4D"/>
<rect x="592" width="82" height="82" rx="40" fill="#749BFF"/>
<rect x="694" width="235" height="82" rx="40" fill="#FFD362"/>
<path fill-rule="evenodd" clip-rule="evenodd" d="M735.832 20.4612C730.151 14.5129 720.941 14.5129 715.26 20.4612C709.58 26.4095 709.58 36.0535 715.26 42.0018L737.521 65.3117C737.721 65.5207 737.933 65.7079 738.156 65.8732C740.066 67.3289 742.756 67.1547 744.479 65.3505L766.74 42.0407C772.42 36.0924 772.42 26.4483 766.74 20.5C761.059 14.5518 751.849 14.5518 746.169 20.5L741.019 25.8928L735.832 20.4612Z" fill="#FFE298"/>
<path fill-rule="evenodd" clip-rule="evenodd" d="M805.832 20.4612C800.151 14.5129 790.941 14.5129 785.26 20.4612C779.58 26.4095 779.58 36.0535 785.26 42.0018L807.521 65.3117C807.721 65.5207 807.933 65.7079 808.156 65.8732C810.066 67.3289 812.756 67.1547 814.479 65.3505L836.74 42.0407C842.42 36.0924 842.42 26.4483 836.74 20.5C831.059 14.5518 821.849 14.5518 816.169 20.5L811.019 25.8928L805.832 20.4612Z" fill="#FFE298"/>
<path fill-rule="evenodd" clip-rule="evenodd" d="M875.832 20.4612C870.151 14.5129 860.941 14.5129 855.26 20.4612C849.58 26.4095 849.58 36.0535 855.26 42.0018L877.521 65.3117C877.721 65.5207 877.933 65.7079 878.156 65.8732C880.066 67.3289 882.756 67.1547 884.479 65.3505L906.74 42.0407C912.42 36.0924 912.42 26.4483 906.74 20.5C901.059 14.5518 891.849 14.5518 886.169 20.5L881.019 25.8928L875.832 20.4612Z" fill="#FFE298"/>
<rect x="949" width="130" height="82" rx="40" fill="#FF4D4D"/>
<rect x="1099" width="292" height="82" rx="40" fill="#749BFF"/>
<mask id="mask0_622_642" style="mask-type:alpha" maskUnits="userSpaceOnUse" x="1099" y="0" width="292" height="82">
<rect x="1099" width="292" height="82" rx="40" fill="#749BFF"/>
</mask>
<g mask="url(#mask0_622_642)">
<mask id="mask1_622_642" style="mask-type:alpha" maskUnits="userSpaceOnUse" x="1099" y="0" width="292" height="82">
<rect x="1099" width="292" height="82" fill="#94B2FF"/>
</mask>
<g mask="url(#mask1_622_642)">
<rect width="3.66787" height="128.82" transform="matrix(0.925429 0.37892 -0.631337 0.775509 1096.06 -9.73047)" fill="#94B2FF"/>
<rect width="3.66787" height="128.82" transform="matrix(0.925429 0.37892 -0.631337 0.775509 1105.86 -9.73047)" fill="#94B2FF"/>
<rect width="3.66787" height="128.82" transform="matrix(0.925429 0.37892 -0.631337 0.775509 1115.66 -9.73047)" fill="#94B2FF"/>
<rect width="3.66787" height="128.82" transform="matrix(0.925429 0.37892 -0.631337 0.775509 1125.46 -9.73047)" fill="#94B2FF"/>
<rect width="3.66787" height="128.82" transform="matrix(0.925429 0.37892 -0.631337 0.775509 1135.25 -9.73047)" fill="#94B2FF"/>
<rect width="3.66787" height="128.82" transform="matrix(0.925429 0.37892 -0.631337 0.775509 1145.05 -9.73047)" fill="#94B2FF"/>
<rect width="3.66787" height="128.82" transform="matrix(0.925429 0.37892 -0.631337 0.775509 1154.85 -9.73047)" fill="#94B2FF"/>
<rect width="3.66787" height="128.82" transform="matrix(0.925429 0.37892 -0.631337 0.775509 1164.65 -9.73047)" fill="#94B2FF"/>
<rect width="3.66787" height="128.82" transform="matrix(0.925429 0.37892 -0.631337 0.775509 1174.45 -9.73047)" fill="#94B2FF"/>
<rect width="3.66787" height="128.82" transform="matrix(0.925429 0.37892 -0.631337 0.775509 1184.25 -9.73047)" fill="#94B2FF"/>
<rect width="3.66787" height="128.82" transform="matrix(0.925429 0.37892 -0.631337 0.775509 1194.05 -9.73047)" fill="#94B2FF"/>
<rect width="3.66787" height="128.82" transform="matrix(0.925429 0.37892 -0.631337 0.775509 1203.84 -9.73047)" fill="#94B2FF"/>
<rect width="3.66787" height="128.82" transform="matrix(0.925429 0.37892 -0.631337 0.775509 1213.64 -9.73047)" fill="#94B2FF"/>
<rect width="3.66787" height="128.82" transform="matrix(0.925429 0.37892 -0.631337 0.775509 1223.44 -9.73047)" fill="#94B2FF"/>
<rect width="3.66787" height="128.82" transform="matrix(0.925429 0.37892 -0.631337 0.775509 1233.24 -9.73047)" fill="#94B2FF"/>
<rect width="3.66787" height="128.82" transform="matrix(0.925429 0.37892 -0.631337 0.775509 1243.04 -9.73047)" fill="#94B2FF"/>
<rect width="3.66787" height="128.82" transform="matrix(0.925429 0.37892 -0.631337 0.775509 1252.84 -9.73047)" fill="#94B2FF"/>
<rect width="3.66787" height="128.82" transform="matrix(0.925429 0.37892 -0.631337 0.775509 1262.64 -9.73047)" fill="#94B2FF"/>
<rect width="3.66787" height="128.82" transform="matrix(0.925429 0.37892 -0.631337 0.775509 1272.44 -9.73047)" fill="#94B2FF"/>
<rect width="3.66787" height="128.82" transform="matrix(0.925429 0.37892 -0.631337 0.775509 1282.23 -9.73047)" fill="#94B2FF"/>
<rect width="3.66787" height="128.82" transform="matrix(0.925429 0.37892 -0.631337 0.775509 1292.04 -9.73047)" fill="#94B2FF"/>
<rect width="3.66787" height="128.82" transform="matrix(0.925429 0.37892 -0.631337 0.775509 1301.83 -9.73047)" fill="#94B2FF"/>
<rect width="3.66787" height="128.82" transform="matrix(0.925429 0.37892 -0.631337 0.775509 1311.63 -9.73047)" fill="#94B2FF"/>
<rect width="3.66787" height="128.82" transform="matrix(0.925429 0.37892 -0.631337 0.775509 1321.43 -9.73047)" fill="#94B2FF"/>
<rect width="3.66787" height="128.82" transform="matrix(0.925429 0.37892 -0.631337 0.775509 1331.23 -9.73047)" fill="#94B2FF"/>
<rect width="3.66787" height="128.82" transform="matrix(0.925429 0.37892 -0.631337 0.775509 1341.03 -9.73047)" fill="#94B2FF"/>
<rect width="3.66787" height="128.82" transform="matrix(0.925429 0.37892 -0.631337 0.775509 1350.82 -9.73047)" fill="#94B2FF"/>
<rect width="3.66787" height="128.82" transform="matrix(0.925429 0.37892 -0.631337 0.775509 1360.62 -9.73047)" fill="#94B2FF"/>
<rect width="3.66787" height="128.82" transform="matrix(0.925429 0.37892 -0.631337 0.775509 1370.42 -9.73047)" fill="#94B2FF"/>
<rect width="3.66787" height="128.82" transform="matrix(0.925429 0.37892 -0.631337 0.775509 1380.22 -9.73047)" fill="#94B2FF"/>
<rect width="3.66787" height="128.82" transform="matrix(0.925429 0.37892 -0.631337 0.775509 1390.02 -9.73047)" fill="#94B2FF"/>
<rect width="3.66787" height="128.82" transform="matrix(0.925429 0.37892 -0.631337 0.775509 1399.82 -9.73047)" fill="#94B2FF"/>
<rect width="3.66787" height="128.82" transform="matrix(0.925429 0.37892 -0.631337 0.775509 1409.62 -9.73047)" fill="#94B2FF"/>
<rect width="3.66787" height="128.82" transform="matrix(0.925429 0.37892 -0.631337 0.775509 1419.42 -9.73047)" fill="#94B2FF"/>
<rect width="3.66787" height="128.82" transform="matrix(0.925429 0.37892 -0.631337 0.775509 1429.21 -9.73047)" fill="#94B2FF"/>
<rect width="3.66787" height="128.82" transform="matrix(0.925429 0.37892 -0.631337 0.775509 1439.01 -9.73047)" fill="#94B2FF"/>
<rect width="3.66787" height="128.82" transform="matrix(0.925429 0.37892 -0.631337 0.775509 1448.81 -9.73047)" fill="#94B2FF"/>
<rect width="3.66787" height="128.82" transform="matrix(0.925429 0.37892 -0.631337 0.775509 1458.61 -9.73047)" fill="#94B2FF"/>
<rect width="3.66787" height="128.82" transform="matrix(0.925429 0.37892 -0.631337 0.775509 1468.41 -9.73047)" fill="#94B2FF"/>
</g>
</g>
<rect x="1411" width="82" height="82" rx="40" fill="#FF4D4D"/>
<rect x="1513" width="235" height="82" rx="40" fill="#749BFF"/>
<mask id="mask2_622_642" style="mask-type:alpha" maskUnits="userSpaceOnUse" x="1768" y="0" width="221" height="82">
<rect x="1768" width="221" height="82" rx="40" fill="#FF7373"/>
</mask>
<g mask="url(#mask2_622_642)">
<rect x="1757" y="-1" width="232" height="83" fill="#FF4D4D"/>
<circle cx="1786" cy="5" r="10" fill="#FF6767"/>
<circle cx="1786" cy="53" r="10" fill="#FF6767"/>
<circle cx="1797" cy="29" r="10" fill="#FF6767"/>
<circle cx="1773" cy="29" r="10" fill="#FF6767"/>
<circle cx="1797" cy="77" r="10" fill="#FF6767"/>
<circle cx="1810" cy="5" r="10" fill="#FF6767"/>
<circle cx="1810" cy="53" r="10" fill="#FF6767"/>
<circle cx="1821" cy="29" r="10" fill="#FF6767"/>
<circle cx="1821" cy="77" r="10" fill="#FF6767"/>
<circle cx="1834" cy="5" r="10" fill="#FF6767"/>
<circle cx="1834" cy="53" r="10" fill="#FF6767"/>
<circle cx="1845" cy="29" r="10" fill="#FF6767"/>
<circle cx="1845" cy="77" r="10" fill="#FF6767"/>
<circle cx="1858" cy="5" r="10" fill="#FF6767"/>
<circle cx="1858" cy="53" r="10" fill="#FF6767"/>
<circle cx="1869" cy="29" r="10" fill="#FF6767"/>
<circle cx="1869" cy="77" r="10" fill="#FF6767"/>
<circle cx="1882" cy="5" r="10" fill="#FF6767"/>
<circle cx="1906" cy="5" r="10" fill="#FF6767"/>
<circle cx="1930" cy="5" r="10" fill="#FF6767"/>
<circle cx="1954" cy="5" r="10" fill="#FF6767"/>
<circle cx="1979" cy="5" r="10" fill="#FF6767"/>
<circle cx="1882" cy="53" r="10" fill="#FF6767"/>
<circle cx="1906" cy="53" r="10" fill="#FF6767"/>
<circle cx="1930" cy="53" r="10" fill="#FF6767"/>
<circle cx="1954" cy="53" r="10" fill="#FF6767"/>
<circle cx="1978" cy="53" r="10" fill="#FF6767"/>
<circle cx="1893" cy="29" r="10" fill="#FF6767"/>
<circle cx="1917" cy="29" r="10" fill="#FF6767"/>
<circle cx="1941" cy="29" r="10" fill="#FF6767"/>
<circle cx="1965" cy="29" r="10" fill="#FF6767"/>
<circle cx="1990" cy="29" r="10" fill="#FF6767"/>
<circle cx="1893" cy="77" r="10" fill="#FF6767"/>
<circle cx="1917" cy="77" r="10" fill="#FF6767"/>
<circle cx="1941" cy="77" r="10" fill="#FF6767"/>
<circle cx="1965" cy="77" r="10" fill="#FF6767"/>
</g>
</svg>
