<svg width="41" height="40" viewBox="0 0 41 40" fill="none" xmlns="http://www.w3.org/2000/svg">
<path fill-rule="evenodd" clip-rule="evenodd" d="M18 22.25C18 22.6642 18.3358 23 18.75 23L23.25 23C23.6642 23 24 22.6642 24 22.25C24 21.8358 23.6642 21.5 23.25 21.5L19.5 21.5L19.5 17.75C19.5 17.3358 19.1642 17 18.75 17C18.3358 17 18 17.3358 18 17.75L18 22.25Z" fill="#FFB13D"/>
<path fill-rule="evenodd" clip-rule="evenodd" d="M18.75 0C18.3358 0 18 0.335786 18 0.75V5.25C18 5.66421 18.3358 6 18.75 6C19.1642 6 19.5 5.66421 19.5 5.25V1.5L23.25 1.5C23.6642 1.5 24 1.16421 24 0.75C24 0.335786 23.6642 0 23.25 0H18.75Z" fill="#FFB13D"/>
<path fill-rule="evenodd" clip-rule="evenodd" d="M41 0.75C41 0.335786 40.6642 -1.46777e-08 40.25 -3.27835e-08L35.75 -2.29485e-07C35.3358 -2.47591e-07 35 0.335786 35 0.75C35 1.16421 35.3358 1.5 35.75 1.5L39.5 1.5L39.5 5.25C39.5 5.66421 39.8358 6 40.25 6C40.6642 6 41 5.66421 41 5.25L41 0.75Z" fill="#FFB13D"/>
<path fill-rule="evenodd" clip-rule="evenodd" d="M40.25 23C40.6642 23 41 22.6642 41 22.25L41 17.75C41 17.3358 40.6642 17 40.25 17C39.8358 17 39.5 17.3358 39.5 17.75L39.5 21.5L35.75 21.5C35.3358 21.5 35 21.8358 35 22.25C35 22.6642 35.3358 23 35.75 23L40.25 23Z" fill="#FFB13D"/>
<rect width="5.54372" height="29.5665" rx="2" transform="matrix(0.66482 0.747003 -0.742364 0.669997 22.5039 15.5664)" fill="#FFD362"/>
<path d="M34.2091 5.53141C34.9909 5.32901 35.7112 6.05436 35.5103 6.84163L34.56 10.5636C34.4864 10.852 34.537 11.16 34.6995 11.4124L36.7967 14.6702C37.2403 15.3593 36.7877 16.2633 35.9792 16.3032L32.1568 16.4917C31.8606 16.5063 31.586 16.6457 31.4 16.8758L28.9999 19.8461C28.4923 20.4743 27.4922 20.3077 27.1935 19.5451L25.7814 15.9396C25.6719 15.6602 25.4516 15.4384 25.1742 15.3282L21.5937 13.9061C20.8363 13.6053 20.6709 12.5983 21.2948 12.0871L24.2444 9.67034C24.473 9.48308 24.6114 9.20654 24.6259 8.9083L24.8131 5.0592C24.8527 4.24504 25.7505 3.78931 26.4348 4.23599L29.67 6.34778C29.9206 6.51141 30.2265 6.56239 30.5129 6.48825L34.2091 5.53141Z" fill="#FFE298"/>
</svg>
