<svg width="41" height="40" viewBox="0 0 41 40" fill="none" xmlns="http://www.w3.org/2000/svg">
<path fill-rule="evenodd" clip-rule="evenodd" d="M18 22.25C18 22.6642 18.3358 23 18.75 23L23.25 23C23.6642 23 24 22.6642 24 22.25C24 21.8358 23.6642 21.5 23.25 21.5L19.5 21.5L19.5 17.75C19.5 17.3358 19.1642 17 18.75 17C18.3358 17 18 17.3358 18 17.75L18 22.25Z" fill="#FFB13D"/>
<path fill-rule="evenodd" clip-rule="evenodd" d="M18.75 0C18.3358 0 18 0.335786 18 0.75V5.25C18 5.66421 18.3358 6 18.75 6C19.1642 6 19.5 5.66421 19.5 5.25V1.5L23.25 1.5C23.6642 1.5 24 1.16421 24 0.75C24 0.335786 23.6642 0 23.25 0H18.75Z" fill="#FFB13D"/>
<path fill-rule="evenodd" clip-rule="evenodd" d="M41 0.75C41 0.335786 40.6642 -1.46777e-08 40.25 -3.27835e-08L35.75 -2.29485e-07C35.3358 -2.47591e-07 35 0.335786 35 0.75C35 1.16421 35.3358 1.5 35.75 1.5L39.5 1.5L39.5 5.25C39.5 5.66421 39.8358 6 40.25 6C40.6642 6 41 5.66421 41 5.25L41 0.75Z" fill="#FFB13D"/>
<path fill-rule="evenodd" clip-rule="evenodd" d="M40.25 23C40.6642 23 41 22.6642 41 22.25L41 17.75C41 17.3358 40.6642 17 40.25 17C39.8358 17 39.5 17.3358 39.5 17.75L39.5 21.5L35.75 21.5C35.3358 21.5 35 21.8358 35 22.25C35 22.6642 35.3358 23 35.75 23L40.25 23Z" fill="#FFB13D"/>
<rect width="5.54372" height="29.5665" rx="2" transform="matrix(0.66482 0.747003 -0.742364 0.669997 22.502 15.5684)" fill="#FFD362"/>
<path d="M34.2062 5.53141C34.988 5.32901 35.7083 6.05436 35.5073 6.84163L34.5571 10.5636C34.4835 10.852 34.5341 11.16 34.6966 11.4124L36.7938 14.6702C37.2374 15.3593 36.7848 16.2633 35.9763 16.3032L32.1538 16.4917C31.8576 16.5063 31.583 16.6457 31.3971 16.8758L28.997 19.8461C28.4893 20.4743 27.4893 20.3077 27.1906 19.5451L25.7784 15.9396C25.669 15.6602 25.4487 15.4384 25.1712 15.3282L21.5907 13.9061C20.8334 13.6053 20.6679 12.5983 21.2918 12.0871L24.2415 9.67034C24.47 9.48308 24.6085 9.20654 24.623 8.9083L24.8102 5.0592C24.8498 4.24504 25.7475 3.78931 26.4319 4.23599L29.667 6.34778C29.9177 6.51141 30.2236 6.56239 30.51 6.48825L34.2062 5.53141Z" fill="#FFE298"/>
</svg>
