<svg width="56" height="56" viewBox="0 0 56 56" fill="none" xmlns="http://www.w3.org/2000/svg">
<path fill-rule="evenodd" clip-rule="evenodd" d="M18 37.871C18 37.871 17.9999 37.871 17.9999 37.871C12.4771 37.871 8 33.4669 8 28.0342C8 22.6015 12.4771 18.1974 17.9999 18.1974C18.046 18.1974 18.0921 18.1977 18.1381 18.1983C18.9312 13.5455 23.0446 10 27.9999 10C33.5227 10 37.9998 14.4041 37.9998 19.8368C37.9998 20.4657 37.9398 21.0809 37.8251 21.677C38.4174 21.5456 39.0336 21.4762 39.6663 21.4762C44.2686 21.4762 47.9995 25.1463 47.9995 29.6736C47.9995 34.2008 44.2687 37.8708 39.6664 37.8709V37.871H18V37.871Z" fill="#749BFF"/>
<path fill-rule="evenodd" clip-rule="evenodd" d="M27.2053 24.2716L20.2541 33.2509C19.7453 33.9081 20.2137 34.8631 21.0448 34.8631H25.7775V44.9997C25.7775 45.552 26.2252 45.9997 26.7775 45.9997H29.222C29.7743 45.9997 30.222 45.552 30.222 44.9997V34.8631H34.9473C35.7784 34.8631 36.2468 33.9081 35.738 33.251L28.7868 24.2716C28.3865 23.7545 27.6057 23.7545 27.2053 24.2716Z" fill="#94B2FF"/>
</svg>
