<svg width="40" height="36" viewBox="0 0 40 36" fill="none" xmlns="http://www.w3.org/2000/svg">
<path fill-rule="evenodd" clip-rule="evenodd" d="M10 27.871C9.99997 27.871 9.99993 27.871 9.9999 27.871C4.47711 27.871 0 23.4669 0 18.0342C0 12.6015 4.47711 8.19736 9.9999 8.19736C10.046 8.19736 10.0921 8.19767 10.1381 8.19828C10.9312 3.54548 15.0446 0 19.9999 0C25.5227 0 29.9998 4.40409 29.9998 9.83681C29.9998 10.4657 29.9398 11.0809 29.8251 11.677C30.4174 11.5456 31.0336 11.4762 31.6663 11.4762C36.2686 11.4762 39.9995 15.1463 39.9995 19.6736C39.9995 24.2008 36.2687 27.8708 31.6664 27.8709V27.871H10V27.871Z" fill="#749BFF"/>
<path fill-rule="evenodd" clip-rule="evenodd" d="M19.2053 14.2707L12.2541 23.25C11.7453 23.9072 12.2137 24.8621 13.0448 24.8621H17.7775V34.9987C17.7775 35.551 18.2252 35.9987 18.7775 35.9987H21.222C21.7743 35.9987 22.222 35.551 22.222 34.9987V24.8621H26.9473C27.7784 24.8621 28.2468 23.9072 27.738 23.25L20.7868 14.2707C20.3865 13.7535 19.6057 13.7535 19.2053 14.2707Z" fill="#94B2FF"/>
</svg>
