<svg width="76" height="22" viewBox="0 0 76 22" fill="none" xmlns="http://www.w3.org/2000/svg">
<path fill-rule="evenodd" clip-rule="evenodd" d="M0 4.30435C0 1.92712 1.92712 0 4.30435 0H6.33344H19.0001H21.029C23.4062 0 25.3333 1.92712 25.3333 4.30435C25.3333 6.68158 23.4062 8.6087 21.029 8.6087H19.0001V13.3914H21.029C23.4062 13.3914 25.3333 15.3185 25.3333 17.6958C25.3333 20.073 23.4062 22.0001 21.029 22.0001H4.30436C1.92713 22.0001 0 20.073 0 17.6958C0 15.3185 1.92712 13.3914 4.30435 13.3914H6.33344V8.6087H4.30436C1.92713 8.6087 0 6.68158 0 4.30435Z" fill="#749BFF"/>
<path fill-rule="evenodd" clip-rule="evenodd" d="M74.401 7.65226C75.3762 6.86315 75.9998 5.65657 75.9998 4.30435C75.9998 1.92713 74.0726 0 71.6954 0H54.9708C54.9309 0 54.891 0.000543863 54.8514 0.00162459C54.8135 0.00058477 54.7755 6.14637e-05 54.7374 6.14616e-05C52.4889 6.13421e-05 50.666 1.8229 50.666 4.07149V17.9287C50.666 20.1772 52.4889 22.0001 54.7374 22.0001C54.7761 22.0001 54.8146 21.9995 54.8529 21.9985C54.8921 21.9995 54.9314 22.0001 54.9708 22.0001L71.6954 22.0001C74.0726 22.0001 75.9998 20.0729 75.9998 17.6957C75.9998 16.3436 75.3763 15.137 74.4012 14.3479C75.3763 13.5588 75.9998 12.3523 75.9998 11.0002C75.9998 9.64794 75.3762 8.44137 74.401 7.65226Z" fill="#FF4D4D"/>
<path fill-rule="evenodd" clip-rule="evenodd" d="M37.9998 12.1601L33.5145 19.834C32.3038 21.9053 29.6226 22.615 27.5258 21.4191C25.4289 20.2233 24.7105 17.5748 25.9211 15.5036L33.7168 2.16597C34.6148 0.629507 36.3221 -0.157708 37.9998 0.0263519C39.6775 -0.157708 41.3848 0.629507 42.2828 2.16597L50.0785 15.5036C51.2891 17.5748 50.5707 20.2233 48.4738 21.4191C46.377 22.615 43.6957 21.9053 42.4851 19.834L37.9998 12.1601Z" fill="#FFD362"/>
</svg>
