<svg width="86" height="14" viewBox="0 0 86 14" fill="none" xmlns="http://www.w3.org/2000/svg">
<path d="M6.1134 0.523026C6.51557 -0.174341 7.48443 -0.174342 7.8866 0.523025L9.49879 3.31855C9.64328 3.56908 9.87894 3.74776 10.1519 3.81373L13.1979 4.5499C13.9578 4.73354 14.2572 5.69509 13.7459 6.30973L11.6963 8.77363C11.5126 8.99444 11.4226 9.28354 11.4468 9.57485L11.7171 12.8254C11.7846 13.6362 11.0007 14.2305 10.2826 13.913L7.40365 12.6402C7.14565 12.5262 6.85435 12.5262 6.59635 12.6402L3.71743 13.913C2.99926 14.2305 2.21544 13.6362 2.28288 12.8254L2.55321 9.57485C2.57744 9.28354 2.48742 8.99444 2.30374 8.77363L0.254137 6.30973C-0.257153 5.69509 0.0422382 4.73355 0.802085 4.5499L3.84808 3.81373C4.12105 3.74776 4.35672 3.56908 4.5012 3.31855L6.1134 0.523026Z" fill="#FFD362"/>
<path d="M24.1134 0.523026C24.5156 -0.174341 25.4844 -0.174342 25.8866 0.523025L27.4988 3.31855C27.6433 3.56908 27.8789 3.74776 28.1519 3.81373L31.1979 4.5499C31.9578 4.73354 32.2572 5.69509 31.7459 6.30973L29.6963 8.77363C29.5126 8.99444 29.4226 9.28354 29.4468 9.57485L29.7171 12.8254C29.7846 13.6362 29.0007 14.2305 28.2826 13.913L25.4037 12.6402C25.1457 12.5262 24.8543 12.5262 24.5963 12.6402L21.7174 13.913C20.9993 14.2305 20.2154 13.6362 20.2829 12.8254L20.5532 9.57485C20.5774 9.28354 20.4874 8.99444 20.3037 8.77363L18.2541 6.30973C17.7428 5.69509 18.0422 4.73355 18.8021 4.5499L21.8481 3.81373C22.1211 3.74776 22.3567 3.56908 22.5012 3.31855L24.1134 0.523026Z" fill="#FFD362"/>
<path d="M42.1134 0.523026C42.5156 -0.174341 43.4844 -0.174342 43.8866 0.523025L45.4988 3.31855C45.6433 3.56908 45.8789 3.74776 46.1519 3.81373L49.1979 4.5499C49.9578 4.73354 50.2572 5.69509 49.7459 6.30973L47.6963 8.77363C47.5126 8.99444 47.4226 9.28354 47.4468 9.57485L47.7171 12.8254C47.7846 13.6362 47.0007 14.2305 46.2826 13.913L43.4037 12.6402C43.1457 12.5262 42.8543 12.5262 42.5963 12.6402L39.7174 13.913C38.9993 14.2305 38.2154 13.6362 38.2829 12.8254L38.5532 9.57485C38.5774 9.28354 38.4874 8.99444 38.3037 8.77363L36.2541 6.30973C35.7428 5.69509 36.0422 4.73355 36.8021 4.5499L39.8481 3.81373C40.1211 3.74776 40.3567 3.56908 40.5012 3.31855L42.1134 0.523026Z" fill="#FFD362"/>
<path d="M60.1134 0.523026C60.5156 -0.174341 61.4844 -0.174342 61.8866 0.523025L63.4988 3.31855C63.6433 3.56908 63.8789 3.74776 64.1519 3.81373L67.1979 4.5499C67.9578 4.73354 68.2572 5.69509 67.7459 6.30973L65.6963 8.77363C65.5126 8.99444 65.4226 9.28354 65.4468 9.57485L65.7171 12.8254C65.7846 13.6362 65.0007 14.2305 64.2826 13.913L61.4037 12.6402C61.1457 12.5262 60.8543 12.5262 60.5963 12.6402L57.7174 13.913C56.9993 14.2305 56.2154 13.6362 56.2829 12.8254L56.5532 9.57485C56.5774 9.28354 56.4874 8.99444 56.3037 8.77363L54.2541 6.30973C53.7428 5.69509 54.0422 4.73355 54.8021 4.5499L57.8481 3.81373C58.1211 3.74776 58.3567 3.56908 58.5012 3.31855L60.1134 0.523026Z" fill="#FFD362"/>
<path d="M78.1134 0.523026C78.5156 -0.174341 79.4844 -0.174342 79.8866 0.523025L81.4988 3.31855C81.6433 3.56908 81.8789 3.74776 82.1519 3.81373L85.1979 4.5499C85.9578 4.73354 86.2572 5.69509 85.7459 6.30973L83.6963 8.77363C83.5126 8.99444 83.4226 9.28354 83.4468 9.57485L83.7171 12.8254C83.7846 13.6362 83.0007 14.2305 82.2826 13.913L79.4037 12.6402C79.1457 12.5262 78.8543 12.5262 78.5963 12.6402L75.7174 13.913C74.9993 14.2305 74.2154 13.6362 74.2829 12.8254L74.5532 9.57485C74.5774 9.28354 74.4874 8.99444 74.3037 8.77363L72.2541 6.30973C71.7428 5.69509 72.0422 4.73355 72.8021 4.5499L75.8481 3.81373C76.1211 3.74776 76.3567 3.56908 76.5012 3.31855L78.1134 0.523026Z" fill="#FFD362"/>
</svg>
