<svg width="30" height="32" viewBox="0 0 30 32" fill="none" xmlns="http://www.w3.org/2000/svg">
<path d="M1.02492 28.6223L1.94475 21.8732C2.00082 21.4321 2.18872 21.0219 2.4827 20.7057L20.3049 1.60802C20.536 1.35823 20.8233 1.1762 21.139 1.07937C21.4548 0.982535 21.7885 0.974162 22.1082 1.05505C23.744 1.53979 25.2269 2.48897 26.3997 3.80205C27.6234 5.06571 28.5042 6.66059 28.9486 8.41714C29.0241 8.75922 29.0163 9.11634 28.9258 9.45425C28.8353 9.79217 28.6652 10.0995 28.4318 10.3468L10.5899 29.4202C10.2937 29.7335 9.91013 29.935 9.49733 29.9942L3.19189 30.9785C2.89404 31.025 2.59014 30.9957 2.30483 30.8931C2.01953 30.7904 1.76086 30.6172 1.54979 30.3875C1.33872 30.1579 1.18121 29.8782 1.09002 29.5713C0.998825 29.2643 0.976523 28.9386 1.02492 28.6207M16.9332 5.24041L25.0601 13.9371" stroke="white" stroke-width="1.5" stroke-linecap="round" stroke-linejoin="round"/>
</svg>
